<?xml version="1.0" encoding="utf-8"?>
<svg width="32px" height="33px" viewBox="0 0 32 33" version="1.1" xmlns:xlink="http://www.w3.org/1999/xlink" xmlns="http://www.w3.org/2000/svg">
  <defs>
    <filter id="filter_1">
      <feColorMatrix in="SourceGraphic" type="matrix" values="0 0 0 0 0.827451 0 0 0 0 0.827451 0 0 0 0 0.827451 0 0 0 1 0" />
    </filter>
    <path d="M0 0L31.5781 0L31.5781 32.25L0 32.25L0 0Z" id="path_1" />
    <clipPath id="mask_1">
      <use xlink:href="#path_1" />
    </clipPath>
  </defs>
  <g id="vehicle-ship-svgrepo-com" filter="url(#filter_1)">
    <path d="M0 0L31.5781 0L31.5781 32.25L0 32.25L0 0Z" id="Background" fill="none" fill-rule="evenodd" stroke="none" />
    <g clip-path="url(#mask_1)">
      <path d="M7.50327 0C6.95827 0 6.51645 0.451218 6.51645 1.00781L6.51645 4.03125L3.55601 4.03125C3.01101 4.03125 2.56919 4.48247 2.56919 5.03906L2.56919 11.4414L0.647503 12.16C0.388168 12.2569 0.180476 12.4605 0.0749258 12.7211C-0.0306372 12.9817 -0.0244137 13.2756 0.0920701 13.5314L3.16357 20.2744C3.38134 20.201 3.61248 20.1601 3.85085 20.1565C4.58552 20.1454 5.26162 20.4907 5.69607 21.0555L2.3345 13.6756L11.0021 10.4343C11.5072 10.2454 12.061 10.243 12.5676 10.4276L21.4824 13.6761L18.0325 20.8588C18.4647 20.4102 19.0672 20.1451 19.7143 20.1567C19.9869 20.1615 20.2499 20.2151 20.4941 20.3102L23.7411 13.5501C23.8649 13.2924 23.8752 12.9929 23.7694 12.7268C23.6635 12.4609 23.4517 12.2535 23.1868 12.157L20.9898 11.3566L20.9898 5.03906C20.9898 4.48247 20.5479 4.03125 20.0029 4.03125L17.0425 4.03125L17.0425 1.00781C17.0425 0.451218 16.6007 0 16.0557 0L7.50327 0L7.50327 0ZM15.0689 4.03125L8.49011 4.03125L8.49011 2.01563L15.0689 2.01563L15.0689 4.03125L15.0689 4.03125ZM19.0162 6.04688L19.0162 10.6373L13.2309 8.52923C12.2901 8.18642 11.2615 8.19076 10.3235 8.54152L4.54285 10.7033L4.54285 6.04688L19.0162 6.04688L19.0162 6.04688Z" transform="translate(4.0095825 2.6875)" id="Shape" fill="white" fill-rule="evenodd" stroke="none" />
      <path d="M22.0082 0.757227L22.005 0.745537C21.8905 0.312314 21.509 0.00808881 21.0693 0.000158906C20.6287 -0.00776844 20.2365 0.283826 20.1082 0.714094L20.1076 0.715839L20.1036 0.728203C20.0986 0.743656 20.0897 0.769993 20.077 0.805872C20.0513 0.877493 20.0099 0.985664 19.9515 1.11802C19.8332 1.38529 19.6513 1.73682 19.3973 2.0823C18.8881 2.77486 18.1614 3.35939 17.1048 3.35939C16.0481 3.35939 15.3209 2.77473 14.8112 2.08203C14.5569 1.73642 14.3748 1.38489 14.2565 1.11762C14.1978 0.985261 14.1565 0.87709 14.1307 0.805334C14.1178 0.76959 14.109 0.743117 14.104 0.727665L14.0999 0.715034C14.0998 0.714765 14.0999 0.715168 14.0999 0.715034C13.9733 0.290275 13.5891 -0.000645875 13.1543 2.56299e-05C12.7195 0.000697135 12.3364 0.291753 12.2109 0.716647L12.2105 0.71799L12.2065 0.730218C12.2017 0.74567 12.1928 0.772007 12.1801 0.807753C12.1547 0.879374 12.1136 0.987412 12.0553 1.11964C11.9378 1.38677 11.7568 1.7379 11.5035 2.0831C10.9962 2.77446 10.2702 3.35939 9.21029 3.35939C8.15032 3.35939 7.42376 2.77433 6.91594 2.08283C6.66233 1.73749 6.4811 1.38637 6.36337 1.11923C6.3051 0.986873 6.26397 0.878836 6.23842 0.807215C6.22568 0.771472 6.21692 0.745134 6.21193 0.72968L6.20712 0.714496C6.07919 0.285033 5.68829 -0.0065587 5.24842 0.000158906C4.80903 0.00674324 4.42714 0.309223 4.31123 0.741774L4.30772 0.753869C4.30363 0.767709 4.29607 0.792299 4.28471 0.826297C4.26192 0.894424 4.22422 0.998699 4.16898 1.12689C4.05747 1.3857 3.88058 1.72795 3.62131 2.06577C3.11581 2.7242 2.31105 3.35939 0.986817 3.35939C0.441817 3.35939 0 3.81062 0 4.3672C0 4.92378 0.441817 5.37502 0.986817 5.37502C3.05724 5.37502 4.39057 4.33052 5.17451 3.30927C5.20502 3.26963 5.23473 3.22986 5.26364 3.19022C5.28757 3.22421 5.31203 3.25821 5.33703 3.29221C6.06274 4.2804 7.30981 5.37502 9.21029 5.37502C11.1109 5.37502 12.3576 4.28027 13.0828 3.29194C13.1083 3.25714 13.1332 3.22247 13.1577 3.1878C13.1823 3.22274 13.2076 3.25794 13.2335 3.29301C13.9598 4.28 15.207 5.37502 17.1048 5.37502C19.0027 5.37502 20.2496 4.27986 20.9755 3.29274C21.0001 3.25902 21.0243 3.22556 21.048 3.19196C21.0762 3.23066 21.1051 3.2695 21.1348 3.30833C21.9182 4.33146 23.2523 5.37502 25.3283 5.37502C25.8733 5.37502 26.3151 4.92378 26.3151 4.3672C26.3151 3.81062 25.8733 3.35939 25.3283 3.35939C23.9965 3.35939 23.1924 2.72326 22.6897 2.06671C22.4314 1.72956 22.2559 1.38785 22.1453 1.12945C22.0906 1.00152 22.0534 0.897381 22.0309 0.829521C22.0197 0.795659 22.0123 0.771067 22.0082 0.757227L22.0082 0.757227Z" transform="translate(2.6314697 24.1875)" id="Shape" fill="white" fill-rule="evenodd" stroke="none" />
    </g>
  </g>
</svg>