<?xml version="1.0" encoding="utf-8"?>
<!-- Generator: Adobe Illustrator 24.2.3, SVG Export Plug-In . SVG Version: 6.00 Build 0)  -->
<svg version="1.1" id="Layer_1" xmlns="http://www.w3.org/2000/svg" xmlns:xlink="http://www.w3.org/1999/xlink" x="0px" y="0px"
	 viewBox="0 0 24 24" style="enable-background:new 0 0 24 24;" xml:space="preserve">
<style type="text/css">
	.st0{fill:white;}
</style>
<path class="st0" d="M7.2,4.5c-1.5,0-2.7,1.2-2.7,2.7v9.6c0,1.5,1.2,2.7,2.7,2.7h9.6c1.5,0,2.7-1.2,2.7-2.7V7.2
	c0-1.5-1.2-2.7-2.7-2.7H7.2z M15.6,10.2l-4.2,4.2c-0.2,0.2-0.6,0.2-0.9,0l-1.7-1.7c-0.2-0.2-0.2-0.6,0-0.9c0.2-0.2,0.6-0.2,0.9,0
	L11,13l3.7-3.7c0.2-0.2,0.6-0.2,0.9,0C15.8,9.5,15.8,9.9,15.6,10.2z"/>
</svg>
