<?xml version="1.0" encoding="utf-8"?>
<!-- Generator: Adobe Illustrator 24.2.3, SVG Export Plug-In . SVG Version: 6.00 Build 0)  -->
<svg version="1.1" id="Layer_1" xmlns="http://www.w3.org/2000/svg" xmlns:xlink="http://www.w3.org/1999/xlink" x="0px" y="0px"
	 viewBox="0 0 275 275" style="enable-background:new 0 0 275 275;" xml:space="preserve">
<style type="text/css">
	.st0{fill:#4D4D66;}
</style>
<path class="st0" d="M245.8,262.5c0-1.4,1.1-2.5,2.5-2.5l0,0c1.4,0,2.5,1.1,2.5,2.5l0,0c0,1.4-1.1,2.5-2.5,2.5l0,0
	C246.9,265,245.8,263.9,245.8,262.5z M225.8,262.5c0-1.4,1.1-2.5,2.5-2.5l0,0c1.4,0,2.5,1.1,2.5,2.5l0,0c0,1.4-1.1,2.5-2.5,2.5l0,0
	C226.9,265,225.8,263.9,225.8,262.5z M205.8,262.5c0-1.4,1.1-2.5,2.5-2.5l0,0c1.4,0,2.5,1.1,2.5,2.5l0,0c0,1.4-1.1,2.5-2.5,2.5l0,0
	C206.9,265,205.8,263.9,205.8,262.5z M185.8,262.5c0-1.4,1.1-2.5,2.5-2.5l0,0c1.4,0,2.5,1.1,2.5,2.5l0,0c0,1.4-1.1,2.5-2.5,2.5l0,0
	C186.9,265,185.8,263.9,185.8,262.5z M165.8,262.5c0-1.4,1.1-2.5,2.5-2.5l0,0c1.4,0,2.5,1.1,2.5,2.5l0,0c0,1.4-1.1,2.5-2.5,2.5l0,0
	C166.9,265,165.8,263.9,165.8,262.5z M145.8,262.5c0-1.4,1.1-2.5,2.5-2.5l0,0c1.4,0,2.5,1.1,2.5,2.5l0,0c0,1.4-1.1,2.5-2.5,2.5l0,0
	C146.9,265,145.8,263.9,145.8,262.5z M125.8,262.5c0-1.4,1.1-2.5,2.5-2.5l0,0c1.4,0,2.5,1.1,2.5,2.5l0,0c0,1.4-1.1,2.5-2.5,2.5l0,0
	C126.9,265,125.8,263.9,125.8,262.5z M105.8,262.5c0-1.4,1.1-2.5,2.5-2.5l0,0c1.4,0,2.5,1.1,2.5,2.5l0,0c0,1.4-1.1,2.5-2.5,2.5l0,0
	C106.9,265,105.8,263.9,105.8,262.5z M85.8,262.5c0-1.4,1.1-2.5,2.5-2.5l0,0c1.4,0,2.5,1.1,2.5,2.5l0,0c0,1.4-1.1,2.5-2.5,2.5l0,0
	C86.9,265,85.8,263.9,85.8,262.5z M65.8,262.5c0-1.4,1.1-2.5,2.5-2.5l0,0c1.4,0,2.5,1.1,2.5,2.5l0,0c0,1.4-1.1,2.5-2.5,2.5l0,0
	C66.9,265,65.8,263.9,65.8,262.5z M45.8,262.5c0-1.4,1.1-2.5,2.5-2.5l0,0c1.4,0,2.5,1.1,2.5,2.5l0,0c0,1.4-1.1,2.5-2.5,2.5l0,0
	C46.9,265,45.8,263.9,45.8,262.5z M25.8,262.5c0-1.4,1.1-2.5,2.5-2.5l0,0c1.4,0,2.5,1.1,2.5,2.5l0,0c0,1.4-1.1,2.5-2.5,2.5l0,0
	C26.9,265,25.8,263.9,25.8,262.5z M259.9,256.9c-1.2-0.6-1.7-2.1-1.1-3.4l0,0c0.6-1.2,2.1-1.7,3.4-1.1l0,0c1.2,0.6,1.7,2.1,1.1,3.4
	l0,0c-0.4,0.9-1.3,1.4-2.2,1.4l0,0C260.6,257.2,260.2,257.1,259.9,256.9z M10.6,252.9c-0.4-1.3,0.4-2.7,1.7-3.1l0,0
	c1.3-0.4,2.7,0.4,3.1,1.7l0,0c0.4,1.3-0.4,2.7-1.7,3.1l0,0c-0.2,0.1-0.5,0.1-0.7,0.1l0,0C11.9,254.7,10.9,254,10.6,252.9z
	 M260,234.9c0-1.4,1.1-2.5,2.5-2.5l0,0c1.4,0,2.5,1.1,2.5,2.5l0,0c0,1.4-1.1,2.5-2.5,2.5l0,0C261.1,237.4,260,236.3,260,234.9z
	 M10,232.2c0-1.4,1.1-2.5,2.5-2.5l0,0c1.4,0,2.5,1.1,2.5,2.5l0,0c0,1.4-1.1,2.5-2.5,2.5l0,0C11.1,234.7,10,233.6,10,232.2z
	 M260,214.9c0-1.4,1.1-2.5,2.5-2.5l0,0c1.4,0,2.5,1.1,2.5,2.5l0,0c0,1.4-1.1,2.5-2.5,2.5l0,0C261.1,217.4,260,216.3,260,214.9z
	 M10,212.2c0-1.4,1.1-2.5,2.5-2.5l0,0c1.4,0,2.5,1.1,2.5,2.5l0,0c0,1.4-1.1,2.5-2.5,2.5l0,0C11.1,214.7,10,213.6,10,212.2z
	 M260,194.9c0-1.4,1.1-2.5,2.5-2.5l0,0c1.4,0,2.5,1.1,2.5,2.5l0,0c0,1.4-1.1,2.5-2.5,2.5l0,0C261.1,197.4,260,196.3,260,194.9z
	 M10,192.2c0-1.4,1.1-2.5,2.5-2.5l0,0c1.4,0,2.5,1.1,2.5,2.5l0,0c0,1.4-1.1,2.5-2.5,2.5l0,0C11.1,194.7,10,193.6,10,192.2z
	 M260,174.9c0-1.4,1.1-2.5,2.5-2.5l0,0c1.4,0,2.5,1.1,2.5,2.5l0,0c0,1.4-1.1,2.5-2.5,2.5l0,0C261.1,177.4,260,176.3,260,174.9z
	 M10,172.2c0-1.4,1.1-2.5,2.5-2.5l0,0c1.4,0,2.5,1.1,2.5,2.5l0,0c0,1.4-1.1,2.5-2.5,2.5l0,0C11.1,174.7,10,173.6,10,172.2z
	 M260,154.9c0-1.4,1.1-2.5,2.5-2.5l0,0c1.4,0,2.5,1.1,2.5,2.5l0,0c0,1.4-1.1,2.5-2.5,2.5l0,0C261.1,157.4,260,156.3,260,154.9z
	 M10,152.2c0-1.4,1.1-2.5,2.5-2.5l0,0c1.4,0,2.5,1.1,2.5,2.5l0,0c0,1.4-1.1,2.5-2.5,2.5l0,0C11.1,154.7,10,153.6,10,152.2z
	 M260,134.9c0-1.4,1.1-2.5,2.5-2.5l0,0c1.4,0,2.5,1.1,2.5,2.5l0,0c0,1.4-1.1,2.5-2.5,2.5l0,0C261.1,137.4,260,136.3,260,134.9z
	 M10,132.2c0-1.4,1.1-2.5,2.5-2.5l0,0c1.4,0,2.5,1.1,2.5,2.5l0,0c0,1.4-1.1,2.5-2.5,2.5l0,0C11.1,134.7,10,133.6,10,132.2z
	 M260,114.9c0-1.4,1.1-2.5,2.5-2.5l0,0c1.4,0,2.5,1.1,2.5,2.5l0,0c0,1.4-1.1,2.5-2.5,2.5l0,0C261.1,117.4,260,116.3,260,114.9z
	 M10,112.2c0-1.4,1.1-2.5,2.5-2.5l0,0c1.4,0,2.5,1.1,2.5,2.5l0,0c0,1.4-1.1,2.5-2.5,2.5l0,0C11.1,114.7,10,113.6,10,112.2z
	 M260,94.9c0-1.4,1.1-2.5,2.5-2.5l0,0c1.4,0,2.5,1.1,2.5,2.5l0,0c0,1.4-1.1,2.5-2.5,2.5l0,0C261.1,97.4,260,96.3,260,94.9z M10,92.2
	c0-1.4,1.1-2.5,2.5-2.5l0,0c1.4,0,2.5,1.1,2.5,2.5l0,0c0,1.4-1.1,2.5-2.5,2.5l0,0C11.1,94.7,10,93.6,10,92.2z M260,74.9
	c0-1.4,1.1-2.5,2.5-2.5l0,0c1.4,0,2.5,1.1,2.5,2.5l0,0c0,1.4-1.1,2.5-2.5,2.5l0,0C261.1,77.4,260,76.3,260,74.9z M10,72.2
	c0-1.4,1.1-2.5,2.5-2.5l0,0c1.4,0,2.5,1.1,2.5,2.5l0,0c0,1.4-1.1,2.5-2.5,2.5l0,0C11.1,74.7,10,73.6,10,72.2z M260,54.9
	c0-1.4,1.1-2.5,2.5-2.5l0,0c1.4,0,2.5,1.1,2.5,2.5l0,0c0,1.4-1.1,2.5-2.5,2.5l0,0C261.1,57.4,260,56.3,260,54.9z M10,52.2
	c0-1.4,1.1-2.5,2.5-2.5l0,0c1.4,0,2.5,1.1,2.5,2.5l0,0c0,1.4-1.1,2.5-2.5,2.5l0,0C11.1,54.7,10,53.6,10,52.2z M260,34.9
	c0-1.4,1.1-2.5,2.5-2.5l0,0c1.4,0,2.5,1.1,2.5,2.5l0,0c0,1.4-1.1,2.5-2.5,2.5l0,0C261.1,37.4,260,36.3,260,34.9z M10,32.2
	c0-1.4,1.1-2.5,2.5-2.5l0,0c1.4,0,2.5,1.1,2.5,2.5l0,0c0,1.4-1.1,2.5-2.5,2.5l0,0C11.1,34.7,10,33.6,10,32.2z M256.2,18.1
	c-1-0.9-1.1-2.5-0.2-3.5l0,0c0.9-1,2.5-1.1,3.5-0.1l0,0c1,0.9,1.1,2.5,0.2,3.5l0,0c-0.5,0.5-1.2,0.8-1.8,0.8l0,0
	C257.3,18.7,256.7,18.5,256.2,18.1z M17.1,15.9c-0.7-1.2-0.4-2.7,0.8-3.4l0,0c1.2-0.7,2.7-0.4,3.4,0.8l0,0c0.7,1.2,0.4,2.7-0.8,3.4
	l0,0c-0.4,0.3-0.9,0.4-1.3,0.4l0,0C18.4,17.1,17.6,16.7,17.1,15.9z M236.3,12.5c0-1.4,1.1-2.5,2.5-2.5l0,0c1.4,0,2.5,1.1,2.5,2.5
	l0,0c0,1.4-1.1,2.5-2.5,2.5l0,0C237.5,15,236.3,13.9,236.3,12.5z M216.3,12.5c0-1.4,1.1-2.5,2.5-2.5l0,0c1.4,0,2.5,1.1,2.5,2.5l0,0
	c0,1.4-1.1,2.5-2.5,2.5l0,0C217.5,15,216.3,13.9,216.3,12.5z M196.3,12.5c0-1.4,1.1-2.5,2.5-2.5l0,0c1.4,0,2.5,1.1,2.5,2.5l0,0
	c0,1.4-1.1,2.5-2.5,2.5l0,0C197.5,15,196.3,13.9,196.3,12.5z M176.3,12.5c0-1.4,1.1-2.5,2.5-2.5l0,0c1.4,0,2.5,1.1,2.5,2.5l0,0
	c0,1.4-1.1,2.5-2.5,2.5l0,0C177.5,15,176.3,13.9,176.3,12.5z M156.3,12.5c0-1.4,1.1-2.5,2.5-2.5l0,0c1.4,0,2.5,1.1,2.5,2.5l0,0
	c0,1.4-1.1,2.5-2.5,2.5l0,0C157.5,15,156.3,13.9,156.3,12.5z M136.4,12.5c0-1.4,1.1-2.5,2.5-2.5l0,0c1.4,0,2.5,1.1,2.5,2.5l0,0
	c0,1.4-1.1,2.5-2.5,2.5l0,0C137.5,15,136.4,13.9,136.4,12.5z M116.3,12.5c0-1.4,1.1-2.5,2.5-2.5l0,0c1.4,0,2.5,1.1,2.5,2.5l0,0
	c0,1.4-1.1,2.5-2.5,2.5l0,0C117.5,15,116.3,13.9,116.3,12.5z M96.4,12.5c0-1.4,1.1-2.5,2.5-2.5l0,0c1.4,0,2.5,1.1,2.5,2.5l0,0
	c0,1.4-1.1,2.5-2.5,2.5l0,0C97.5,15,96.4,13.9,96.4,12.5z M76.3,12.5c0-1.4,1.1-2.5,2.5-2.5l0,0c1.4,0,2.5,1.1,2.5,2.5l0,0
	c0,1.4-1.1,2.5-2.5,2.5l0,0C77.5,15,76.3,13.9,76.3,12.5z M56.4,12.5c0-1.4,1.1-2.5,2.5-2.5l0,0c1.4,0,2.5,1.1,2.5,2.5l0,0
	c0,1.4-1.1,2.5-2.5,2.5l0,0C57.5,15,56.4,13.9,56.4,12.5z M36.3,12.5c0-1.4,1.1-2.5,2.5-2.5l0,0c1.4,0,2.5,1.1,2.5,2.5l0,0
	c0,1.4-1.1,2.5-2.5,2.5l0,0C37.5,15,36.3,13.9,36.3,12.5z"/>
</svg>
