<?xml version="1.0" encoding="utf-8"?>
<!-- Generator: Adobe Illustrator 24.2.3, SVG Export Plug-In . SVG Version: 6.00 Build 0)  -->
<svg version="1.1" id="Layer_1" xmlns="http://www.w3.org/2000/svg" xmlns:xlink="http://www.w3.org/1999/xlink" x="0px" y="0px"
	 viewBox="0 0 300 300" style="enable-background:new 0 0 300 300;" xml:space="preserve">
<style type="text/css">
	.st0{fill:#6B6B88;}
</style>
<g>
	<path class="st0" d="M283,3h-0.2c-1.7,0-3,1.3-3,3s1.3,3,3,3h0.2c0.6,0,1.1-0.2,1.6-0.5c0.3,0.4,0.8,0.8,1.3,1h0.1
		c0.4,0.1,0.7,0.2,1.1,0.2c1.2,0,2.3-0.7,2.8-1.9c0.6-1.5-0.1-3.2-1.6-3.9c0,0,0,0-0.1,0c0,0-0.1,0-0.1-0.1l0,0l0,0H288
		c-0.3-0.1-0.7-0.2-1-0.2c-0.6,0-1.1,0.2-1.6,0.5C284.8,3.5,284,3,283,3L283,3L283,3z M264.8,3h-0.2c-1.7,0-3,1.3-3,3s1.3,3,3,3h0.2
		c1.7,0,3-1.3,3-3S266.5,3,264.8,3L264.8,3z M246.6,3h-0.2c-1.7,0-3,1.3-3,3s1.3,3,3,3h0.2c1.7,0,3-1.3,3-3S248.3,3,246.6,3L246.6,3
		z M228.4,3h-0.2c-1.7,0-3,1.3-3,3s1.3,3,3,3h0.2c1.7,0,3-1.3,3-3S230.1,3,228.4,3L228.4,3z M210.2,3H210c-1.7,0-3,1.3-3,3
		s1.3,3,3,3h0.2c1.7,0,3-1.3,3-3S211.9,3,210.2,3L210.2,3z M192,3h-0.2c-1.7,0-3,1.3-3,3s1.3,3,3,3h0.2c1.7,0,3-1.3,3-3
		S193.7,3,192,3L192,3z M173.8,3h-0.2c-1.7,0-3,1.3-3,3s1.3,3,3,3h0.2c1.7,0,3-1.3,3-3S175.5,3,173.8,3L173.8,3z M155.6,3h-0.2
		c-1.7,0-3,1.3-3,3s1.3,3,3,3h0.2c1.7,0,3-1.3,3-3S157.3,3,155.6,3L155.6,3z M137.4,3h-0.2c-1.7,0-3,1.3-3,3s1.3,3,3,3h0.2
		c1.7,0,3-1.3,3-3S139.1,3,137.4,3L137.4,3z M119.2,3H119c-1.7,0-3,1.3-3,3s1.3,3,3,3h0.2c1.7,0,3-1.3,3-3S120.9,3,119.2,3L119.2,3z
		 M101,3h-0.2c-1.7,0-3,1.3-3,3s1.3,3,3,3h0.2c1.7,0,3-1.3,3-3S102.7,3,101,3L101,3z M82.8,3h-0.2c-1.7,0-3,1.3-3,3s1.3,3,3,3h0.2
		c1.7,0,3-1.3,3-3S84.5,3,82.8,3L82.8,3z M64.6,3h-0.2c-1.7,0-3,1.3-3,3s1.3,3,3,3h0.2c1.7,0,3-1.3,3-3S66.3,3,64.6,3L64.6,3z
		 M46.4,3h-0.2c-1.7,0-3,1.3-3,3s1.3,3,3,3h0.2c1.7,0,3-1.3,3-3S48.1,3,46.4,3L46.4,3z M28.2,3H28c-1.7,0-3,1.3-3,3s1.3,3,3,3h0.2
		c1.7,0,3-1.3,3-3S29.9,3,28.2,3L28.2,3z M11.7,4.3c-0.5,0-1,0.1-1.4,0.4l0,0l0,0c-0.1,0-0.1,0.1-0.2,0.1l0,0l0,0c0,0,0,0-0.1,0
		C8.7,5.7,8.2,7.5,9,8.9c0.6,1,1.6,1.5,2.6,1.5c0.5,0,1-0.1,1.5-0.4l0.1-0.1c1.4-0.8,2-2.6,1.2-4.1C13.8,4.9,12.8,4.3,11.7,4.3
		L11.7,4.3z M6,17.2c-1.7,0-3,1.3-3,3v0.2c0,1.7,1.3,3,3,3s3-1.3,3-3v-0.2C9,18.5,7.7,17.2,6,17.2L6,17.2z M6,35.4c-1.7,0-3,1.3-3,3
		v0.2c0,1.7,1.3,3,3,3s3-1.3,3-3v-0.2C9,36.7,7.7,35.4,6,35.4L6,35.4z M6,53.6c-1.7,0-3,1.3-3,3v0.2c0,1.7,1.3,3,3,3s3-1.3,3-3v-0.2
		C9,54.9,7.7,53.6,6,53.6L6,53.6z M6,71.8c-1.7,0-3,1.3-3,3V75c0,1.7,1.3,3,3,3s3-1.3,3-3v-0.2C9,73.1,7.7,71.8,6,71.8L6,71.8z
		 M6,90c-1.7,0-3,1.3-3,3v0.2c0,1.7,1.3,3,3,3s3-1.3,3-3V93C9,91.3,7.7,90,6,90L6,90z M6,108.2c-1.7,0-3,1.3-3,3v0.2
		c0,1.7,1.3,3,3,3s3-1.3,3-3v-0.2C9,109.5,7.7,108.2,6,108.2L6,108.2z M6,126.4c-1.7,0-3,1.3-3,3v0.2c0,1.7,1.3,3,3,3s3-1.3,3-3
		v-0.2C9,127.7,7.7,126.4,6,126.4L6,126.4z M6,144.6c-1.7,0-3,1.3-3,3v0.2c0,1.7,1.3,3,3,3s3-1.3,3-3v-0.2
		C9,145.9,7.7,144.6,6,144.6L6,144.6z M6,162.8c-1.7,0-3,1.3-3,3v0.2c0,1.7,1.3,3,3,3s3-1.3,3-3v-0.2C9,164.1,7.7,162.8,6,162.8
		L6,162.8z M6,181c-1.7,0-3,1.3-3,3v0.2c0,1.7,1.3,3,3,3s3-1.3,3-3V184C9,182.3,7.7,181,6,181L6,181z M6,199.2c-1.7,0-3,1.3-3,3v0.2
		c0,1.7,1.3,3,3,3s3-1.3,3-3v-0.2C9,200.5,7.7,199.2,6,199.2L6,199.2z M6,217.4c-1.7,0-3,1.3-3,3v0.2c0,1.7,1.3,3,3,3s3-1.3,3-3
		v-0.2C9,218.7,7.7,217.4,6,217.4L6,217.4z M6,235.6c-1.7,0-3,1.3-3,3v0.2c0,1.7,1.3,3,3,3s3-1.3,3-3v-0.2
		C9,236.9,7.7,235.6,6,235.6L6,235.6z M6,253.8c-1.7,0-3,1.3-3,3v0.2c0,1.7,1.3,3,3,3s3-1.3,3-3v-0.2C9,255.1,7.7,253.8,6,253.8
		L6,253.8z M6,272c-1.7,0-3,1.3-3,3v0.2c0,1.7,1.3,3,3,3s3-1.3,3-3V275C9,273.3,7.7,272,6,272L6,272z M8.8,287.3
		c-0.7,0-1.4,0.3-2,0.8c-1.2,1.1-1.3,3-0.3,4.2c0.1,0.1,0.1,0.2,0.2,0.2c0.6,0.6,1.4,0.9,2.2,0.9c0.7,0,1.4-0.3,2-0.8
		c1.2-1.1,1.3-3,0.2-4.3l-0.1-0.1C10.4,287.7,9.6,287.3,8.8,287.3L8.8,287.3z M23.6,291h-0.2c-1.7,0-3,1.3-3,3s1.3,3,3,3h0.2
		c1.7,0,3-1.3,3-3S25.3,291,23.6,291L23.6,291z M41.8,291h-0.2c-1.7,0-3,1.3-3,3s1.3,3,3,3h0.2c1.7,0,3-1.3,3-3S43.5,291,41.8,291
		L41.8,291z M60,291h-0.2c-1.7,0-3,1.3-3,3s1.3,3,3,3H60c1.7,0,3-1.3,3-3S61.7,291,60,291L60,291z M78.2,291H78c-1.7,0-3,1.3-3,3
		s1.3,3,3,3h0.2c1.7,0,3-1.3,3-3S79.9,291,78.2,291L78.2,291z M96.4,291h-0.2c-1.7,0-3,1.3-3,3s1.3,3,3,3h0.2c1.7,0,3-1.3,3-3
		S98.1,291,96.4,291L96.4,291z M114.6,291h-0.2c-1.7,0-3,1.3-3,3s1.3,3,3,3h0.2c1.7,0,3-1.3,3-3S116.3,291,114.6,291L114.6,291z
		 M132.8,291h-0.2c-1.7,0-3,1.3-3,3s1.3,3,3,3h0.2c1.7,0,3-1.3,3-3S134.5,291,132.8,291L132.8,291z M151,291h-0.2c-1.7,0-3,1.3-3,3
		s1.3,3,3,3h0.2c1.7,0,3-1.3,3-3S152.7,291,151,291L151,291z M169.2,291H169c-1.7,0-3,1.3-3,3s1.3,3,3,3h0.2c1.7,0,3-1.3,3-3
		S170.9,291,169.2,291L169.2,291z M187.4,291h-0.2c-1.7,0-3,1.3-3,3s1.3,3,3,3h0.2c1.7,0,3-1.3,3-3S189.1,291,187.4,291L187.4,291z
		 M205.6,291h-0.2c-1.7,0-3,1.3-3,3s1.3,3,3,3h0.2c1.7,0,3-1.3,3-3S207.3,291,205.6,291L205.6,291z M223.8,291h-0.2
		c-1.7,0-3,1.3-3,3s1.3,3,3,3h0.2c1.7,0,3-1.3,3-3S225.5,291,223.8,291L223.8,291z M242,291h-0.2c-1.7,0-3,1.3-3,3s1.3,3,3,3h0.2
		c1.7,0,3-1.3,3-3S243.7,291,242,291L242,291z M260.2,291H260c-1.7,0-3,1.3-3,3s1.3,3,3,3h0.2c1.7,0,3-1.3,3-3S261.9,291,260.2,291
		L260.2,291z M278.4,291h-0.2c-1.7,0-3,1.3-3,3s1.3,3,3,3h0.2c1.7,0,3-1.3,3-3S280.1,291,278.4,291L278.4,291z M292.1,286.2
		c-1,0-1.9,0.5-2.5,1.3l-0.1,0.1c-0.9,1.4-0.6,3.2,0.7,4.2c0.5,0.4,1.1,0.5,1.7,0.5c0.9,0,1.8-0.4,2.4-1.2l0,0l0,0
		c0-0.1,0.1-0.1,0.1-0.2l0,0l0,0c0.9-1.4,0.6-3.2-0.8-4.1C293.3,286.4,292.7,286.2,292.1,286.2L292.1,286.2z M294,270.2
		c-1.7,0-3,1.3-3,3v0.2c0,1.7,1.3,3,3,3s3-1.3,3-3v-0.2C297,271.5,295.7,270.2,294,270.2L294,270.2z M294,252c-1.7,0-3,1.3-3,3v0.2
		c0,1.7,1.3,3,3,3s3-1.3,3-3V255C297,253.3,295.7,252,294,252L294,252z M294,233.8c-1.7,0-3,1.3-3,3v0.2c0,1.7,1.3,3,3,3s3-1.3,3-3
		v-0.2C297,235.1,295.7,233.8,294,233.8L294,233.8z M294,215.6c-1.7,0-3,1.3-3,3v0.2c0,1.7,1.3,3,3,3s3-1.3,3-3v-0.2
		C297,216.9,295.7,215.6,294,215.6L294,215.6z M294,197.4c-1.7,0-3,1.3-3,3v0.2c0,1.7,1.3,3,3,3s3-1.3,3-3v-0.2
		C297,198.7,295.7,197.4,294,197.4L294,197.4z M294,179.2c-1.7,0-3,1.3-3,3v0.2c0,1.7,1.3,3,3,3s3-1.3,3-3v-0.2
		C297,180.5,295.7,179.2,294,179.2L294,179.2z M294,161c-1.7,0-3,1.3-3,3v0.2c0,1.7,1.3,3,3,3s3-1.3,3-3V164
		C297,162.3,295.7,161,294,161L294,161z M294,142.8c-1.7,0-3,1.3-3,3v0.2c0,1.7,1.3,3,3,3s3-1.3,3-3v-0.2
		C297,144.1,295.7,142.8,294,142.8L294,142.8z M294,124.6c-1.7,0-3,1.3-3,3v0.2c0,1.7,1.3,3,3,3s3-1.3,3-3v-0.2
		C297,125.9,295.7,124.6,294,124.6L294,124.6z M294,106.4c-1.7,0-3,1.3-3,3v0.2c0,1.7,1.3,3,3,3s3-1.3,3-3v-0.2
		C297,107.7,295.7,106.4,294,106.4L294,106.4z M294,88.2c-1.7,0-3,1.3-3,3v0.2c0,1.7,1.3,3,3,3s3-1.3,3-3v-0.2
		C297,89.5,295.7,88.2,294,88.2L294,88.2z M294,70c-1.7,0-3,1.3-3,3v0.2c0,1.7,1.3,3,3,3s3-1.3,3-3V73C297,71.3,295.7,70,294,70
		L294,70z M294,51.8c-1.7,0-3,1.3-3,3V55c0,1.7,1.3,3,3,3s3-1.3,3-3v-0.2C297,53.1,295.7,51.8,294,51.8L294,51.8z M294,33.6
		c-1.7,0-3,1.3-3,3v0.2c0,1.7,1.3,3,3,3s3-1.3,3-3v-0.2C297,34.9,295.7,33.6,294,33.6L294,33.6z M294,15.4c-1.7,0-3,1.3-3,3v0.2
		c0,1.7,1.3,3,3,3s3-1.3,3-3v-0.2C297,16.7,295.7,15.4,294,15.4L294,15.4z"/>
</g>
</svg>
